<svg viewBox="0 0 300 400" xmlns="http://www.w3.org/2000/svg">
  <!-- Background -->
  <rect width="300" height="400" fill="#FFFFFF" stroke="#DDD" stroke-width="1"/>
  
  <!-- Red header -->
  <rect width="300" height="60" fill="#E74C3C"/>
  
  <!-- Avatar circle -->
  <circle cx="150" cy="30" r="15" fill="white"/>
  <text x="150" y="36" font-size="20" text-anchor="middle" fill="#E74C3C">👤</text>
  
  <!-- Name -->
  <text x="150" y="58" font-size="12" font-weight="bold" fill="white" text-anchor="middle">ALEX CHEN</text>
  
  <!-- Contact -->
  <text x="10" y="85" font-size="8" fill="#666">alex@email.com • (555) 345-6789</text>
  
  <!-- Two columns layout -->
  <text x="10" y="105" font-size="9" font-weight="bold" fill="#E74C3C">EXPERTISE</text>
  <line x1="10" y1="109" x2="120" y2="109" stroke="#E74C3C" stroke-width="1.5"/>
  <line x1="10" y1="120" x2="100" y2="120" stroke="#E8E8E8" stroke-width="1"/>
  <line x1="10" y1="128" x2="110" y2="128" stroke="#E8E8E8" stroke-width="1"/>
  
  <!-- Right column -->
  <text x="160" y="105" font-size="9" font-weight="bold" fill="#E74C3C">PROJECTS</text>
  <line x1="160" y1="109" x2="270" y2="109" stroke="#E74C3C" stroke-width="1.5"/>
  
  <rect x="160" y="118" width="40" height="25" fill="#FFE8E4" stroke="#E74C3C" stroke-width="0.5" rx="2"/>
  <text x="180" y="136" font-size="6" fill="#E74C3C" text-anchor="middle">Project 1</text>
  
  <rect x="210" y="118" width="40" height="25" fill="#FFE8E4" stroke="#E74C3C" stroke-width="0.5" rx="2"/>
  <text x="230" y="136" font-size="6" fill="#E74C3C" text-anchor="middle">Project 2</text>
  
  <!-- Experience -->
  <text x="10" y="165" font-size="9" font-weight="bold" fill="#E74C3C">EXPERIENCE</text>
  <line x1="10" y1="169" x2="280" y2="169" stroke="#E74C3C" stroke-width="1"/>
  
  <text x="10" y="182" font-size="8" font-weight="bold" fill="#2C3E50">Creative Director - Agency</text>
  <text x="10" y="191" font-size="7" fill="#666">2018 - Present</text>
  
  <!-- Awards section -->
  <text x="10" y="210" font-size="9" font-weight="bold" fill="#E74C3C">AWARDS</text>
  <line x1="10" y1="214" x2="280" y2="214" stroke="#E74C3C" stroke-width="1"/>
  <line x1="10" y1="226" x2="200" y2="226" stroke="#E8E8E8" stroke-width="1"/>
</svg>