<svg viewBox="0 0 300 400" xmlns="http://www.w3.org/2000/svg">
  <!-- Background -->
  <rect width="300" height="400" fill="#FAFAFA" stroke="#DDD" stroke-width="1"/>
  
  <!-- Name -->
  <text x="15" y="25" font-size="14" font-weight="bold" fill="#34495E">EMMA WILSON</text>
  <text x="15" y="37" font-size="8" fill="#95A5A6">Product Manager</text>
  
  <!-- Divider -->
  <line x1="15" y1="45" x2="285" y2="45" stroke="#ECF0F1" stroke-width="1.5"/>
  
  <!-- Contact -->
  <text x="15" y="60" font-size="7" fill="#7F8C8D">📧 emma@email.com</text>
  <text x="15" y="70" font-size="7" fill="#7F8C8D">📱 (555) 456-7890</text>
  
  <!-- Section 1 -->
  <text x="15" y="88" font-size="9" font-weight="bold" fill="#34495E">ABOUT</text>
  <line x1="15" y1="93" x2="70" y2="93" stroke="#34495E" stroke-width="1"/>
  <line x1="15" y1="105" x2="270" y2="105" stroke="#E8E8E8" stroke-width="1"/>
  <line x1="15" y1="113" x2="250" y2="113" stroke="#E8E8E8" stroke-width="1"/>
  
  <!-- Section 2 -->
  <text x="15" y="132" font-size="9" font-weight="bold" fill="#34495E">EXPERIENCE</text>
  <line x1="15" y1="137" x2="120" y2="137" stroke="#34495E" stroke-width="1"/>
  
  <text x="15" y="150" font-size="8" font-weight="bold" fill="#34495E">Senior PM - Tech Co</text>
  <text x="15" y="160" font-size="7" fill="#666">2020 - Present</text>
  
  <!-- Section 3 -->
  <text x="15" y="180" font-size="9" font-weight="bold" fill="#34495E">EDUCATION</text>
  <line x1="15" y1="185" x2="120" y2="185" stroke="#34495E" stroke-width="1"/>
  
  <text x="15" y="198" font-size="8" font-weight="bold" fill="#34495E">MBA - Business School</text>
  
  <!-- Section 4 -->
  <text x="15" y="218" font-size="9" font-weight="bold" fill="#34495E">SKILLS</text>
  <line x1="15" y1="223" x2="75" y2="223" stroke="#34495E" stroke-width="1"/>
  
  <rect x="15" y="235" width="32" height="12" fill="#ECF0F1" rx="2"/>
  <text x="31" y="243" font-size="6" fill="#34495E" text-anchor="middle">Strategy</text>
  
  <rect x="55" y="235" width="35" height="12" fill="#ECF0F1" rx="2"/>
  <text x="73" y="243" font-size="6" fill="#34495E" text-anchor="middle">Analytics</text>
</svg>