<svg viewBox="0 0 300 400" xmlns="http://www.w3.org/2000/svg">
  <!-- Background -->
  <rect width="300" height="400" fill="#FFFFFF" stroke="#DDD" stroke-width="1"/>
  
  <!-- Header -->
  <rect width="300" height="70" fill="#2C3E50"/>
  <text x="15" y="35" font-size="16" font-weight="bold" fill="white">JOHN ANDERSON</text>
  <text x="15" y="52" font-size="10" fill="#AAA">Senior Software Engineer</text>
  
  <!-- Contact -->
  <text x="15" y="75" font-size="8" fill="#666">john@email.com | (555) 123-4567</text>
  
  <!-- Section 1 -->
  <text x="15" y="95" font-size="11" font-weight="bold" fill="#2C3E50">PROFESSIONAL SUMMARY</text>
  <line x1="15" y1="100" x2="285" y2="100" stroke="#2C3E50" stroke-width="1"/>
  <line x1="15" y1="112" x2="285" y2="112" stroke="#E8E8E8" stroke-width="1"/>
  <line x1="15" y1="120" x2="250" y2="120" stroke="#E8E8E8" stroke-width="1"/>
  
  <!-- Section 2 -->
  <text x="15" y="140" font-size="11" font-weight="bold" fill="#2C3E50">EXPERIENCE</text>
  <line x1="15" y1="145" x2="285" y2="145" stroke="#2C3E50" stroke-width="1"/>
  
  <text x="15" y="160" font-size="9" font-weight="bold" fill="#2C3E50">Senior Developer - Tech Corp</text>
  <text x="15" y="171" font-size="8" fill="#666">Jan 2020 - Present</text>
  <line x1="15" y1="180" x2="230" y2="180" stroke="#E8E8E8" stroke-width="1"/>
  <line x1="15" y1="188" x2="210" y2="188" stroke="#E8E8E8" stroke-width="1"/>
  
  <!-- Section 3 -->
  <text x="15" y="210" font-size="11" font-weight="bold" fill="#2C3E50">EDUCATION</text>
  <line x1="15" y1="215" x2="285" y2="215" stroke="#2C3E50" stroke-width="1"/>
  
  <text x="15" y="230" font-size="9" font-weight="bold" fill="#2C3E50">B.S. Computer Science</text>
  <text x="15" y="241" font-size="8" fill="#666">University of Technology, 2018</text>
  
  <!-- Section 4 -->
  <text x="15" y="265" font-size="11" font-weight="bold" fill="#2C3E50">SKILLS</text>
  <line x1="15" y1="270" x2="285" y2="270" stroke="#2C3E50" stroke-width="1"/>
  
  <rect x="15" y="285" width="45" height="15" fill="#2C3E50" rx="2"/>
  <text x="38" y="296" font-size="7" fill="white" text-anchor="middle">JavaScript</text>
  
  <rect x="70" y="285" width="35" height="15" fill="#2C3E50" rx="2"/>
  <text x="88" y="296" font-size="7" fill="white" text-anchor="middle">React</text>
  
  <rect x="115" y="285" width="35" height="15" fill="#2C3E50" rx="2"/>
  <text x="133" y="296" font-size="7" fill="white" text-anchor="middle">Node.js</text>
</svg>